<svg xmlns="http://www.w3.org/2000/svg" viewBox="0 0 1100 760" font-family="system-ui,'Segoe UI',Tahoma,sans-serif" direction="rtl">
  <rect width="1100" height="760" fill="#FAFAF9"/>

  <!-- Top brand strip -->
  <rect x="0" y="0" width="1100" height="84" fill="#0F172A"/>
  <text x="1080" y="36" font-size="18" font-weight="700" fill="#F97316" text-anchor="end">صَرح · التحقّق العام</text>
  <text x="1080" y="56" font-size="10" fill="rgba(255,255,255,0.5)" letter-spacing="2" text-anchor="end" direction="ltr">verify.sarh.ly</text>
  <line x1="0" y1="84" x2="1100" y2="84" stroke="#F97316" stroke-width="2"/>

  <!-- Hero -->
  <text x="1078" y="142" font-size="22" font-weight="700" fill="#0F172A" text-anchor="end">شهادة معتمدة ✓</text>
  <text x="1078" y="166" font-size="12" fill="rgba(15,23,42,0.6)" text-anchor="end">تم التحقّق من صحّة الوثيقة من قاعدة بيانات سجل العقارات الليبي</text>

  <!-- Status banner -->
  <rect x="22" y="200" width="1058" height="76" rx="14" fill="rgba(8,145,178,0.08)" stroke="rgba(8,145,178,0.4)" stroke-width="1.5"/>
  <circle cx="62" cy="238" r="22" fill="#0891B2"/>
  <text x="62" y="246" font-size="22" font-weight="700" fill="#fff" text-anchor="middle">✓</text>
  <text x="1062" y="232" font-size="14" font-weight="700" fill="#0891B2" text-anchor="end">صحيحة وموقَّعة رقمياً (PAdES) — صادرة بقرار رقم DCR-2026-1142</text>
  <text x="1062" y="252" font-size="11" fill="rgba(15,23,42,0.6)" text-anchor="end" direction="ltr">SHA-256: 3a7b…9f02 · 02 May 2026 14:27 UTC+2</text>

  <!-- Property card -->
  <rect x="22" y="296" width="640" height="430" rx="14" fill="#fff" stroke="#E5E7EB"/>
  <text x="640" y="328" font-size="14" font-weight="700" fill="#0F172A" text-anchor="end">معلومات العقار</text>

  <g font-size="11.5">
    <text x="640" y="372" fill="rgba(15,23,42,0.55)" text-anchor="end">الرمز</text>
    <text x="42" y="372" font-size="13" font-weight="700" fill="#0F172A" direction="ltr">PRP-2026-0438</text>

    <text x="640" y="404" fill="rgba(15,23,42,0.55)" text-anchor="end">النوع</text>
    <text x="42" y="404" font-size="12" font-weight="600" fill="#0F172A">سكني</text>

    <text x="640" y="436" fill="rgba(15,23,42,0.55)" text-anchor="end">المنطقة / العنوان</text>
    <text x="42" y="436" font-size="12" font-weight="600" fill="#0F172A">طرابلس · حي الأندلس · شارع الزاوية</text>

    <text x="640" y="468" fill="rgba(15,23,42,0.55)" text-anchor="end">رقم القطعة / المخطّط</text>
    <text x="42" y="468" font-size="12" font-weight="600" fill="#0F172A" direction="ltr">2174 / B-37</text>

    <text x="640" y="500" fill="rgba(15,23,42,0.55)" text-anchor="end">المساحة</text>
    <text x="42" y="500" font-size="12" font-weight="600" fill="#0F172A" direction="ltr">425.50 م²</text>

    <text x="640" y="532" fill="rgba(15,23,42,0.55)" text-anchor="end">الإحداثيات (المركز)</text>
    <text x="42" y="532" font-size="11" font-weight="600" fill="#0F172A" direction="ltr">32.871234, 13.190782</text>

    <text x="640" y="564" fill="rgba(15,23,42,0.55)" text-anchor="end">المالك (السجل المعتمد)</text>
    <text x="42" y="564" font-size="12" font-weight="600" fill="#0F172A">علي محمد بلعيد</text>

    <text x="640" y="596" fill="rgba(15,23,42,0.55)" text-anchor="end">معرّف SSI الموثَّق</text>
    <text x="42" y="596" font-size="11" font-weight="600" fill="#0F172A" direction="ltr">did:sov:LY:9F2k…aB73</text>

    <text x="640" y="628" fill="rgba(15,23,42,0.55)" text-anchor="end">تاريخ الاعتماد</text>
    <text x="42" y="628" font-size="12" font-weight="600" fill="#0F172A" direction="ltr">02/05/2026</text>

    <text x="640" y="660" fill="rgba(15,23,42,0.55)" text-anchor="end">الموظّف المعتِمد</text>
    <text x="42" y="660" font-size="12" font-weight="600" fill="#0F172A">مكتب طرابلس — الرقم الوظيفي 1408</text>
  </g>

  <!-- Download deed -->
  <rect x="42" y="688" width="180" height="34" rx="8" fill="#0F172A"/>
  <text x="132" y="710" font-size="11.5" font-weight="700" fill="#F97316" text-anchor="middle">تحميل صحيفة الملكية ↓</text>

  <!-- QR + map column -->
  <rect x="682" y="296" width="398" height="206" rx="14" fill="#fff" stroke="#E5E7EB"/>
  <text x="1058" y="328" font-size="14" font-weight="700" fill="#0F172A" text-anchor="end">رمز الاستجابة (QR)</text>
  <!-- Faux QR -->
  <g transform="translate(720,344)">
    <rect width="120" height="120" fill="#fff" stroke="#0F172A" stroke-width="1"/>
    <g fill="#0F172A">
      <rect x="6" y="6" width="30" height="30"/><rect x="84" y="6" width="30" height="30"/>
      <rect x="6" y="84" width="30" height="30"/>
      <rect x="12" y="12" width="18" height="18" fill="#fff"/>
      <rect x="90" y="12" width="18" height="18" fill="#fff"/>
      <rect x="12" y="90" width="18" height="18" fill="#fff"/>
      <rect x="48" y="6" width="6" height="6"/><rect x="60" y="6" width="6" height="6"/>
      <rect x="48" y="18" width="6" height="6"/><rect x="72" y="18" width="6" height="6"/>
      <rect x="42" y="42" width="6" height="6"/><rect x="54" y="42" width="6" height="6"/>
      <rect x="66" y="42" width="6" height="6"/><rect x="78" y="42" width="6" height="6"/>
      <rect x="90" y="42" width="6" height="6"/>
      <rect x="42" y="54" width="6" height="6"/><rect x="60" y="54" width="6" height="6"/>
      <rect x="78" y="54" width="6" height="6"/>
      <rect x="42" y="66" width="6" height="6"/><rect x="54" y="66" width="6" height="6"/>
      <rect x="72" y="66" width="6" height="6"/><rect x="84" y="66" width="6" height="6"/>
      <rect x="42" y="78" width="6" height="6"/><rect x="66" y="78" width="6" height="6"/>
      <rect x="78" y="78" width="6" height="6"/>
      <rect x="48" y="90" width="6" height="6"/><rect x="60" y="90" width="6" height="6"/>
      <rect x="72" y="90" width="6" height="6"/><rect x="84" y="90" width="6" height="6"/>
      <rect x="96" y="90" width="6" height="6"/>
      <rect x="48" y="102" width="6" height="6"/><rect x="78" y="102" width="6" height="6"/>
    </g>
  </g>
  <text x="1058" y="386" font-size="10" fill="rgba(15,23,42,0.55)" text-anchor="end">امسح للتحقّق من الوثيقة</text>
  <text x="1058" y="404" font-size="10" fill="rgba(15,23,42,0.55)" text-anchor="end">عبر هاتف ذكي.</text>
  <text x="1058" y="430" font-size="10" fill="rgba(15,23,42,0.55)" text-anchor="end">يحتوي الرمز على معرّف</text>
  <text x="1058" y="446" font-size="10" fill="rgba(15,23,42,0.55)" text-anchor="end">SSI ورابط هذه الصفحة.</text>
  <text x="1058" y="478" font-size="9.5" font-weight="600" fill="#0F172A" direction="ltr" text-anchor="end">verify.sarh.ly/PRP-2026-0438</text>

  <!-- Map preview -->
  <rect x="682" y="514" width="398" height="212" rx="14" fill="#fff" stroke="#E5E7EB"/>
  <text x="1058" y="544" font-size="13" font-weight="700" fill="#0F172A" text-anchor="end">الموقع</text>
  <rect x="700" y="558" width="362" height="156" rx="10" fill="#e8eef0"/>
  <line x1="700" y1="610" x2="1062" y2="600" stroke="#fff" stroke-width="5" opacity="0.7"/>
  <line x1="700" y1="680" x2="1062" y2="690" stroke="#fff" stroke-width="5" opacity="0.7"/>
  <polygon points="800,612 920,608 924,668 805,675" fill="rgba(8,145,178,0.25)" stroke="#0891B2" stroke-width="2.5"/>
  <circle cx="862" cy="640" r="9" fill="#0891B2"/>
  <circle cx="862" cy="640" r="18" fill="none" stroke="#0891B2" stroke-width="1.5" opacity="0.5"/>

  <text x="20" y="745" font-size="10" fill="rgba(15,23,42,0.4)" direction="ltr">Wireframe · Public verify</text>
</svg>
